<?xml version="1.0" encoding="UTF-8"?>
<svg id="Camada_1" data-name="Camada 1" xmlns="http://www.w3.org/2000/svg" viewBox="0 0 440 56">
  <defs>
    <style>
      .cls-1 {
        fill: #fffdfd;
      }

      .cls-1, .cls-2 {
        stroke: #fff;
        stroke-width: .98px;
      }

      .cls-3 {
        fill: #fff;
      }

      .cls-4 {
        fill: #03f;
      }

      .cls-2 {
        fill: none;
      }
    </style>
  </defs>
  <rect class="cls-4" width="440" height="56"/>
  <g>
    <g>
      <g>
        <path class="cls-3" d="M196.1,31.55c2.43,0,4.29,1.25,4.29,3.79v.91h-6.88c0,1.49.86,2.21,2.32,2.21h.27c1.31,0,2.06-.46,2.3-1.31h1.89c-.24,1.7-1.63,2.81-4.19,2.81h-.27c-2.43,0-4.27-1.23-4.27-3.77v-.85c0-2.54,1.82-3.79,4.27-3.79h.27ZM193.51,34.88h4.93c-.1-1.18-1.01-1.84-2.33-1.84h-.27c-1.39,0-2.22.64-2.32,1.84Z"/>
        <path class="cls-3" d="M205.91,31.55c2.3,0,3.82.91,3.82,2.7v.16h-2v-.18c0-.99-.82-1.3-1.82-1.3h-.27c-1.04,0-1.74.27-1.74.99s.67.91,2.43,1.14c2.56.35,3.52,1.06,3.52,2.38v.11c0,1.55-1.44,2.4-3.89,2.4h-.27c-2.43,0-3.92-.85-3.92-2.72v-.13h1.98v.16c0,.93.74,1.28,1.94,1.28h.27c1.31,0,1.89-.32,1.89-.96,0-.7-.66-.94-2.53-1.18-2.21-.27-3.44-.83-3.44-2.35v-.11c0-1.5,1.5-2.4,3.76-2.4h.27Z"/>
        <path class="cls-3" d="M215.23,31.55c2.3,0,3.82.91,3.82,2.7v.16h-2v-.18c0-.99-.82-1.3-1.82-1.3h-.27c-1.04,0-1.74.27-1.74.99s.67.91,2.43,1.14c2.56.35,3.52,1.06,3.52,2.38v.11c0,1.55-1.44,2.4-3.89,2.4h-.27c-2.43,0-3.92-.85-3.92-2.72v-.13h1.98v.16c0,.93.74,1.28,1.94,1.28h.27c1.31,0,1.89-.32,1.89-.96,0-.7-.66-.94-2.53-1.18-2.21-.27-3.44-.83-3.44-2.35v-.11c0-1.5,1.5-2.4,3.76-2.4h.27Z"/>
        <path class="cls-3" d="M225.05,31.55c2.43,0,4.29,1.25,4.29,3.79v.91h-6.88c0,1.49.86,2.21,2.32,2.21h.27c1.31,0,2.06-.46,2.3-1.31h1.89c-.24,1.7-1.63,2.81-4.19,2.81h-.27c-2.43,0-4.27-1.23-4.27-3.77v-.85c0-2.54,1.82-3.79,4.27-3.79h.27ZM222.46,34.88h4.92c-.1-1.18-1.01-1.84-2.33-1.84h-.27c-1.39,0-2.22.64-2.32,1.84Z"/>
        <path class="cls-3" d="M233.07,31.69v1.07h.35c.5-.75,1.41-1.22,2.62-1.22h.26c1.92,0,3.1,1.09,3.1,3.39v4.86h-2.05v-4.53c0-1.33-.69-2.03-2-2.03h-.26c-1.28,0-2.03.72-2.03,2.03v4.53h-2.03v-8.11h2.03Z"/>
        <path class="cls-3" d="M245.56,31.55c2.46,0,4.19,1.17,4.19,3.33v.08h-2.01v-.08c0-1.01-.78-1.71-2.18-1.71h-.27c-1.42,0-2.22.78-2.22,2.16v.9c0,1.36.8,2.11,2.22,2.11h.27c1.38,0,2.22-.66,2.22-1.62v-.08h2.01v.08c0,2.06-1.78,3.25-4.24,3.25h-.27c-2.56,0-4.25-1.25-4.25-3.77v-.83c0-2.53,1.7-3.81,4.25-3.81h.27Z"/>
        <path class="cls-3" d="M252.59,28.29c.61,0,1.07.42,1.07.94v.06c0,.56-.46.96-1.07.96h-.16c-.61,0-1.06-.4-1.06-.96v-.06c0-.53.45-.94,1.06-.94h.16ZM253.53,31.69v8.11h-2.03v-8.11h2.03Z"/>
        <path class="cls-3" d="M259.64,31.55c2.62,0,3.9,1.09,3.9,2.93v5.33h-2.05v-1.02h-.37c-.69.83-1.61,1.18-2.94,1.18-1.69,0-2.94-.77-2.94-2.46,0-1.58,1.07-2.48,3.47-2.48h2.78v-.54c0-1.01-.7-1.46-1.87-1.46h-.27c-1.09,0-1.87.43-1.87,1.44h-2.01c0-1.84,1.34-2.91,3.89-2.91h.29ZM257.26,37.34c0,.7.56,1.09,1.69,1.09,1.22,0,2.54-.46,2.54-1.86v-.32h-2.56c-1.18,0-1.68.37-1.68,1.09Z"/>
        <path class="cls-3" d="M267.36,27.97v11.83h-2.03v-11.83h2.03Z"/>
      </g>
      <g>
        <g>
          <path class="cls-2" d="M179.57,41.29c-.5.13-1.03.2-1.57.2-3.47,0-6.29-2.82-6.29-6.29h3.14c0,2.93,2,5.39,4.71,6.09Z"/>
          <path class="cls-2" d="M184.29,35.2h-12.58c0-1.33.41-2.56,1.12-3.57,1.13-1.64,3.03-2.72,5.17-2.72.54,0,1.07.07,1.57.2,2.71.7,4.71,3.16,4.71,6.09Z"/>
        </g>
        <g>
          <path class="cls-1" d="M185.83,38c.44.01.68.51.42.87-1.14,1.59-3.01,2.63-5.11,2.63-.54,0-1.07-.07-1.57-.2,1.64-.42,3.03-1.49,3.86-2.92.16-.27.45-.44.77-.43l1.63.05Z"/>
          <path class="cls-2" d="M186.23,35.2h-1.94c0-2.93-2-5.39-4.71-6.09.5-.13,1.03-.2,1.57-.2,3.02,0,5.54,2.13,6.15,4.96.15.68-.37,1.33-1.07,1.33Z"/>
        </g>
      </g>
    </g>
    <g>
      <path class="cls-3" d="M228.39,17.48c1.78,0,3.1.75,3.1,2.4v.38h-.6v-.38c0-1.4-1.14-1.91-2.49-1.91h-.3c-1.37,0-2.48.46-2.48,1.56,0,1.16.95,1.4,2.78,1.68,2.37.35,3.22.84,3.22,2.1v.1c0,1.29-1.16,2-3.22,2h-.3c-2.06,0-3.24-.73-3.24-2.37v-.32h.6v.33c0,1.32.94,1.87,2.64,1.87h.3c1.73,0,2.62-.54,2.62-1.56s-.73-1.38-2.86-1.7c-2-.3-3.14-.67-3.14-2.08v-.1c0-1.3,1.32-2.02,3.08-2.02h.3Z"/>
      <path class="cls-3" d="M236.79,17.48c1.84,0,3.11.78,3.11,2.54v5.29h-.6v-1.08h-.35c-.81.89-1.94,1.18-3.1,1.18-1.65,0-2.73-.65-2.73-2.16,0-1.43.92-2.21,2.99-2.21h3.19v-1.02c0-1.51-1.1-2.05-2.51-2.05h-.29c-1.37,0-2.51.54-2.51,2.05v.25h-.6v-.25c0-1.76,1.27-2.54,3.11-2.54h.29ZM233.73,23.21c0,1.21.91,1.7,2.29,1.7,1.18,0,3.29-.43,3.29-2.54v-.89h-3.18c-1.67,0-2.4.59-2.4,1.73Z"/>
      <path class="cls-3" d="M249.2,17.58v11.55h-.6v-5.07h-.3c-.59.92-1.68,1.35-2.86,1.35h-.3c-2.08,0-3.43-1.27-3.43-3.37v-1.19c0-2.08,1.35-3.37,3.43-3.37h.3c1.16,0,2.22.41,2.86,1.4h.3v-1.3h.6ZM245.31,17.99c-1.84,0-3,1.11-3,2.86v1.19c0,1.76,1.16,2.86,3,2.86h.29c1.75,0,3-1.02,3-2.86v-1.19c0-1.81-1.22-2.86-3-2.86h-.29Z"/>
      <path class="cls-3" d="M257.31,25.31v-1.13h-.33c-.43.67-1.3,1.22-2.62,1.22h-.17c-1.92,0-3-1-3-3.05v-4.78h.62v4.7c0,1.73.89,2.59,2.61,2.59h.17c1.57,0,2.73-.91,2.73-2.59v-4.7h.6v7.74h-.6Z"/>
      <path class="cls-3" d="M263.68,17.48c2.02,0,3.53,1.14,3.53,3.34v.67h-6.77v.56c0,1.91,1.19,2.88,2.94,2.88h.3c1.7,0,2.7-.79,2.92-2.27h.57c-.22,1.78-1.46,2.76-3.49,2.76h-.3c-2.05,0-3.53-1.11-3.53-3.38v-1.21c0-2.19,1.48-3.34,3.53-3.34h.3ZM260.44,20.77v.24h6.16v-.25c0-1.83-1.22-2.78-2.92-2.78h-.3c-1.75,0-2.94.95-2.94,2.8Z"/>
    </g>
  </g>
</svg>