<?xml version="1.0" encoding="UTF-8"?>
<svg id="Camada_2" data-name="Camada 2" xmlns="http://www.w3.org/2000/svg" viewBox="0 0 473 473">
  <defs>
    <style>
      .cls-1 {
        fill: #03f;
        fill-rule: evenodd;
      }
    </style>
  </defs>
  <g id="Layer_1" data-name="Layer 1">
    <path class="cls-1" d="M348.7,224.41c68.65,0,124.3,55.65,124.3,124.3s-55.65,124.3-124.3,124.3-124.3-55.65-124.3-124.3,55.65-124.3,124.3-124.3h0ZM66.65,151.8c0-17.54,14.23-31.76,31.77-31.76s31.77,14.22,31.77,31.76-14.22,31.77-31.77,31.77c-17.54,0-31.77-14.23-31.77-31.77ZM52.34,237.43h92.13c-3.42-22.73-23.03-39.59-46.07-39.59s-42.64,16.86-46.07,39.59ZM156.06,112.28H40.77c-2.71,0-4.93,2.22-4.93,4.93v115.29c0,1.76.95,3.38,2.47,4.26,3.81-30.2,29.61-52.92,60.11-52.92s56.29,22.72,60.11,52.92c1.51-.88,2.47-2.5,2.47-4.26v-115.29c0-2.71-2.22-4.93-4.93-4.93ZM40.77,98.28c-10.43,0-18.93,8.5-18.93,18.93v115.29c0,10.43,8.49,18.93,18.93,18.93h115.29c10.43,0,18.93-8.49,18.93-18.93v-115.29c0-10.43-8.49-18.93-18.93-18.93H40.77ZM0,62.44h416.03V17.74c-.06-9.82-7.92-17.68-17.74-17.74H17.74C8,0,0,8,0,17.74v44.7ZM416.03,76.44H0v201.2C0,287.38,8,295.38,17.74,295.38h203.33c6.91-16.52,16.94-31.42,29.34-43.95h-31.25c-3.87,0-7-3.13-7-7s3.13-7,7-7h47.42c43.36-32.06,102.41-35.81,149.45-9.54V76.44ZM106.84,38.22c-3.87,0-7-3.13-7-7s3.13-7,7-7h202.35c3.87,0,7,3.13,7,7s-3.13,7-7,7H106.84ZM219.17,112.28c-3.87,0-7-3.13-7-7s3.13-7,7-7h164.79c3.87,0,7,3.13,7,7s-3.13,7-7,7h-164.79ZM219.17,181.86c-3.87,0-7-3.13-7-7s3.13-7,7-7h164.79c3.87,0,7,3.13,7,7s-3.13,7-7,7h-164.79ZM80.64,151.8c0,9.82,7.95,17.77,17.77,17.77s17.77-7.95,17.77-17.77-7.96-17.76-17.77-17.76-17.77,7.95-17.77,17.76ZM380.36,276.96c-21.11,0-42.21.03-63.32.03-7.05,0-13.19,4.33-15.54,10.98l-13.04,36.85c-9.03,1.46-15.74,9.33-15.74,18.5v22.35c-2.88,2.19-4.63,5.59-4.63,9.25v10.46c0,6.36,5.24,11.6,11.6,11.6h.73v11.63c0,2.54,2.07,4.6,4.6,4.6h12.42c2.54,0,4.6-2.07,4.6-4.6v-11.63h93.28v11.87c0,2.54,2.07,4.6,4.6,4.6h12.42c2.54,0,4.6-2.07,4.6-4.6v-11.87h.73c6.36,0,11.6-5.24,11.6-11.6v-10.46c0-3.2-1.3-6.1-3.4-8.2-.38-.38-.8-.74-1.23-1.07v-22.33c0-9.17-6.71-17.04-15.74-18.5l-13.04-36.85c-2.35-6.65-8.49-11-15.54-11h0ZM396.16,344.24c-4.02,0-7.29,3.26-7.29,7.29s3.26,7.29,7.29,7.29,7.29-3.26,7.29-7.29c0-4.02-3.26-7.29-7.29-7.29ZM301.25,344.24c-4.02,0-7.29,3.26-7.29,7.29s3.26,7.29,7.29,7.29,7.29-3.26,7.29-7.29-3.26-7.29-7.29-7.29ZM322.38,363.3v-3.58c0-4.19,3.43-7.62,7.62-7.62h37.41c4.19,0,7.62,3.43,7.62,7.62v3.58h35.65v-20c0-2.59-2.15-4.74-4.74-4.74h-114.48c-2.59,0-4.74,2.15-4.74,4.74v20h35.65ZM415.31,377.3h-133.22v5.67h133.22v-5.67h0ZM317.05,290.94c-1.14.01-1.98.59-2.36,1.67l-11.31,31.96h90.66l-11.31-31.96c-.38-1.08-1.22-1.65-2.36-1.65-21.13,0-42.19-.03-63.32-.01h0Z"/>
  </g>
</svg>