<?xml version="1.0" encoding="UTF-8"?>
<svg id="Camada_2" data-name="Camada 2" xmlns="http://www.w3.org/2000/svg" viewBox="0 0 28 24">
  <defs>
    <style>
      .cls-1 {
        fill: #03f;
        fill-rule: evenodd;
      }
    </style>
  </defs>
  <g id="Camada_1-2" data-name="Camada 1">
    <path class="cls-1" d="M25,0c1.66,0,3,1.34,3,3v18c0,.8-.32,1.56-.88,2.12-.56.56-1.32.88-2.12.88H3c-1.66,0-3-1.34-3-3V3C0,1.34,1.34,0,3,0h22ZM25,2H3c-.55,0-1,.45-1,1v18c0,.55.45,1,1,1h22c.26,0,.52-.11.71-.29.19-.19.29-.44.29-.71V3c0-.55-.45-1-1-1h0ZM17,8c-.55,0-1-.45-1-1s.45-1,1-1h6c.55,0,1,.45,1,1s-.45,1-1,1h-6ZM17,13c-.55,0-1-.45-1-1s.45-1,1-1h6c.55,0,1,.45,1,1s-.45,1-1,1h-6ZM9,12.5c1.63,0,3.08.81,3.98,1.83.67.76,1.02,1.63,1.02,2.39,0,.93-.46,1.63-1.28,2.09-.84.48-2.19.69-3.72.69s-2.88-.21-3.72-.69c-.82-.47-1.28-1.16-1.28-2.09,0-.76.35-1.63,1.02-2.39.9-1.02,2.35-1.83,3.98-1.83ZM9,14.5c-1.02,0-1.92.51-2.48,1.15-.3.35-.52.72-.52,1.07,0,.27.25.37.53.48.63.24,1.51.31,2.47.31s1.84-.07,2.47-.31c.28-.11.53-.21.53-.48,0-.35-.22-.72-.52-1.07-.56-.64-1.46-1.15-2.48-1.15ZM9,4.5c1.93,0,3.5,1.57,3.5,3.5s-1.57,3.5-3.5,3.5-3.5-1.57-3.5-3.5,1.57-3.5,3.5-3.5ZM9,6.5c-.83,0-1.5.67-1.5,1.5s.67,1.5,1.5,1.5,1.5-.67,1.5-1.5-.67-1.5-1.5-1.5ZM17,18c-.55,0-1-.45-1-1s.45-1,1-1h6c.55,0,1,.45,1,1s-.45,1-1,1h-6Z"/>
  </g>
</svg>