<?xml version="1.0" encoding="UTF-8"?>
<svg id="Camada_2" data-name="Camada 2" xmlns="http://www.w3.org/2000/svg" viewBox="0 0 28 24">
  <defs>
    <style>
      .cls-1 {
        fill: #03f;
        fill-rule: evenodd;
      }
    </style>
  </defs>
  <g id="Camada_1-2" data-name="Camada 1">
    <path class="cls-1" d="M25,0c1.66,0,3,1.34,3,3v18c0,.8-.32,1.56-.88,2.12-.56.56-1.32.88-2.12.88H3c-1.66,0-3-1.34-3-3V3C0,1.34,1.34,0,3,0h22ZM25,2H3c-.55,0-1,.45-1,1v18c0,.55.45,1,1,1h22c.26,0,.52-.11.71-.29.19-.19.29-.44.29-.71V3c0-.55-.45-1-1-1h0ZM6.12,8c-1.38,0-1.61-.45-1.61-1s.23-1,1.61-1h15.03c1.38,0,1.67.45,1.67,1s-.29,1-1.67,1H6.12ZM6.12,12c-1.38,0-1.61-.45-1.61-1s.23-1,1.61-1h15.03c1.38,0,1.67.45,1.67,1s-.29,1-1.67,1H6.12ZM6.12,18.96c-1.38,0-1.61-.45-1.61-1s.23-1,1.61-1h15.03c1.38,0,1.67.45,1.67,1s-.29,1-1.67,1H6.12Z"/>
  </g>
</svg>